<svg height="1833" viewBox="0 0 2450 1833" width="2450" xmlns="http://www.w3.org/2000/svg"><g fill="none"><path d="m2436.96 1832.58h-2424.801c-6.658 0-12.056-5.4-12.056-12.05v-2.3c0-6.66 5.398-12.06 12.056-12.06h2424.801c6.66 0 12.06 5.4 12.06 12.06v2.3c0 6.65-5.4 12.05-12.06 12.05" fill="#95a6db"/><path d="m1345.45 1029.86-444.748 315.28 161.468 229.76 361.03-256.45 1.43-1.01 12.34-157.35z" fill="#3f964f"/><path d="m1418.48 1215.99-61.95-88.14c-21.35 15.01-50.84 9.87-65.85-11.49l-290.04 206.54c15.02 21.36 9.87 50.85-11.49 65.87l61.94 88.13c21.36-15 50.85-9.86 65.86 11.49l290.03-206.54c-15.01-21.36-9.87-50.85 11.5-65.86" fill="#4ead60"/><path d="m1281.07 1251.21c-24.92-35.46-73.87-44.01-109.33-19.09s-44 73.87-19.08 109.33 73.87 44.01 109.33 19.09 44-73.87 19.08-109.33" fill="#3f964f"/><path d="m1436.97 1160.09-88.57 84.7 74.8 73.66 1.26 1.24.18-2.25z" fill="#3f964f"/><path d="m1391.95 1340.41-16.45-36.13 19.33-13.77 28.37 27.94z" fill="#32783f"/><path d="m1375.5 1304.28-27.1-59.49 46.43 45.72z" fill="#3e8a4d"/><path d="m1402.41 1193.14-3.7-5.27 32.19-36.42 6.07 8.64z" fill="#32783f"/><path d="m1348.4 1244.79 50.31-56.92 3.7 5.27z" fill="#3e8a4d"/><path d="m1348.4 1244.79 88.57-84.7z" fill="#32783f"/><path d="m1282.97 1418.06-10.64-40.32 18.43-13.12 10.64 40.35zm-61.03-252.75 7.05-52.89 16.97-12.03-7.04 52.83z" fill="#32783f"/><path d="m1272.33 1377.74-.7-2.64c-1.43-5.42-5.4-9.91-11.37-13.38.58-.39 1.16-.78 1.73-1.18 6.2-4.36 11.58-9.46 16.1-15.09 5.82 3.46 9.69 7.89 11.1 13.23l1.57 5.94zm-42.17-158.75c-4.41-.76-8.88-1.14-13.36-1.14-.62 0-1.24.01-1.86.02l7-52.56 16.98-12.09z" fill="#3e8a4d"/><path d="m1260.26 1361.72c-9.7-5.65-24.68-8.63-42.61-8.63-6.6 0-13.61.4-20.9 1.22l18.19-136.44c.62-.01 1.24-.02 1.86-.02 4.48 0 8.95.38 13.36 1.14l-15.85 118.9c7.29-.82 14.29-1.22 20.9-1.22 18.1 0 33.19 3.03 42.88 8.78-4.52 5.63-9.9 10.73-16.1 15.09-.57.4-1.15.79-1.73 1.18" fill="#32783f"/><path d="m968.62 940.39-86.642 650 278.362 37.1 86.64-650z" fill="#3f964f"/><path d="m1154.94 1012.92-106.78-14.23c-3.45 25.88-27.23 44.06-53.1 40.61l-61.67 462.55c25.89 3.45 44.07 27.23 40.62 53.11l106.79 14.23c3.45-25.88 27.22-44.06 53.1-40.61l61.66-462.55c-25.88-3.45-44.07-27.23-40.62-53.11" fill="#4ead60"/><path d="m1079.96 1208.97c-42.96-5.72-82.43 24.46-88.16 67.42s24.46 82.43 67.42 88.16 82.43-24.46 88.16-67.42-24.46-82.43-67.42-88.16" fill="#3f964f"/><path d="m1164.32 1360.4-267.464 70.59 71.664 271.52 267.46-70.59-50.43-191.08c53.43-14.31 91.91-43.65 86.08-65.74s-53.78-28.62-107.31-14.7" fill="#3f964f"/><path d="m970.61 1454.57 50.42 191.04 300.64-79.35-50.42-191.04z" fill="#4ead60"/><path d="m1110.94 1447.21c-37.43 9.87-59.77 48.23-49.89 85.66s48.23 59.77 85.67 49.89c37.43-9.88 59.76-48.24 49.89-85.67-9.88-37.43-48.24-59.77-85.67-49.88" fill="#3f964f"/><path d="m1235.98 1631.92-10.62-40.24 96.31-25.42-39.05-147.95.35-.25 49.71 188.34z" fill="#b6ddff"/><path d="m1282.62 1418.31-10.42-39.51c-.02-.31-.04-.61-.07-.91l.2-.15 10.64 40.32z" fill="#286032"/><path d="m1272.13 1377.89c-.09-.94-.26-1.87-.5-2.79l.7 2.64z" fill="#326e3e"/><path d="m1156.03 1362.59 8.29-2.19z" fill="#32783f"/><path d="m1136.92 1367.63 19.11-5.04z" fill="#3e8a4d"/><path d="m1208.58 1639.15-10.62-40.24 27.4-7.23 10.62 40.24zm-61.04-231.28-10.62-40.24 19.11-5.04 8.29-2.19c19.03-4.95 37.35-7.31 53.33-7.31 28.97 0 50.22 7.77 53.98 22.01.24.92.41 1.85.5 2.79.03.3.05.6.07.91l-.95-3.58z" fill="#32783f"/><path d="m1197.96 1598.91-11.58-43.9c11.31-16.29 15.68-37.24 10.23-57.92-5.46-20.67-19.61-36.74-37.48-45.32l-11.59-43.9 123.71-32.65.95 3.58 49.47 187.46-96.31 25.42z" fill="#3e8a4d"/><path d="m1186.38 1555.01-27.25-103.24c17.87 8.58 32.02 24.65 37.48 45.32 5.45 20.68 1.08 41.63-10.23 57.92" fill="#32783f"/><path d="m1271.63 1375.1c5.83 22.09-32.65 51.43-86.08 65.74l71.66 271.53.01-.01c53.43-14.31 91.91-43.64 86.07-65.74z" fill="#3f964f"/><path d="m1284.56 1424.1c2.58 9.77-4.01 20.7-16.09 29.19 3.58 15.08-4.76 30.14-18.91 33.87l-.07.02 36.24 137.28.06-.02c13-3.43 26.44 3.87 31.9 16.6 12.26-8.51 18.97-19.54 16.37-29.38z" fill="#4ead60"/><path d="m953.49 1805.45-393.49.25006c-62.062.03994-112.405-50.24006-112.445-112.30006l-.610065-962.911c-.037935-62.064 50.242065-112.407 112.304065-112.446l393.481-.249072c62.07-.039928 112.41 50.240072 112.45 112.304072l.61006 962.912c.03994 62.06-50.24006 112.4-112.30006 112.44" fill="#2c2858"/><path d="m957.54 1786.2-401.617.26006c-43.642.02994-79.044-35.33006-79.072-78.97006l-.623045-984.005c-.026955-43.641 35.330045-79.045 78.973045-79.071l401.619-.255045c43.64-.026955 79.04 35.330045 79.07 78.972045l.62006 983.999c.02994 43.64-35.33006 79.05-78.97006 79.07" fill="#95a6db"/><path d="m443.306 932.88c-9.683 0-17.534-7.851-17.534-17.534v-90.908c0-9.684 7.851-17.533 17.534-17.533s17.533 7.849 17.533 17.533v90.908c0 9.683-7.85 17.534-17.533 17.534" fill="#2c2858"/><path d="m1068.55 932.88c-9.69 0-17.54-7.851-17.54-17.534v-90.908c0-9.684 7.85-17.533 17.54-17.533 9.68 0 17.53 7.849 17.53 17.533v90.908c0 9.683-7.85 17.534-17.53 17.534" fill="#2c2858"/><path d="m2018.34 1805.45-393.48.25006c-62.07.03994-112.41-50.24006-112.45-112.30006l-.61006-962.911c-.03994-62.064 50.24006-112.407 112.31006-112.446l393.48-.249072c62.06-.039928 112.41 50.240072 112.45 112.304072l.61006 962.912c.03994 62.06-50.24006 112.4-112.31006 112.44" fill="#2c2858"/><path d="m2022.4 1786.2-401.62.26006c-43.64.02994-79.04-35.33006-79.07-78.97006l-.62006-984.005c-.02994-43.641 35.33006-79.045 78.97006-79.071l401.62-.255045c43.64-.026955 79.04 35.330045 79.07 78.972045l.62006 983.999c.02994 43.64-35.33006 79.05-78.97006 79.07" fill="#95a6db"/><path d="m1508.16 932.88c-9.68 0-17.53-7.851-17.53-17.534v-90.908c0-9.684 7.85-17.533 17.53-17.533 9.69 0 17.54 7.849 17.54 17.533v90.908c0 9.683-7.85 17.534-17.54 17.534" fill="#2c2858"/><path d="m2133.41 932.88c-9.69 0-17.54-7.851-17.54-17.534v-90.908c0-9.684 7.85-17.533 17.54-17.533 9.68 0 17.53 7.849 17.53 17.533v90.908c0 9.683-7.85 17.534-17.53 17.534" fill="#2c2858"/><path d="m1508.16 1067.35c-9.68 0-17.53-7.85-17.53-17.53v-90.91c0-9.68 7.85-17.53 17.53-17.53 9.69 0 17.54 7.85 17.54 17.53v90.91c0 9.68-7.85 17.53-17.54 17.53" fill="#2c2858"/><path d="m262.482 1744.26c-13.221 55.51-60.478 24.98-50.595 60.07.728 2.59 3.186 4.31 5.872 4.42l27.749 1.06c2.678.1 5.317-.66 7.528-2.18 14.639-10.02 24.572-24.14 56.191-25.85-.242-13.5.373-32.78-4.087-39.67z" fill="#0e6a41"/><path d="m335.609 1354.67s-80.703 123.09-91.843 161.37c-11.141 38.29 12.165 103.16 7.948 233.91 25.224 6.55 58.855.92 58.855.92s20.242-164-3.567-202.72c35.673-54.44 125.279-173.28 125.279-173.28z" fill="#201d40"/><path d="m380.365 1762.15c-20.535 27.95-71.791 11.42-69.736 48.94 77.689-1.24 109.983-1.07 109.983-1.07-.185-8.62-1.921-29.06-3.79-37.06z" fill="#0e6a41"/><path d="m356.293 1329.79s-25.734 200.81-19.793 240.24c5.94 39.43 24.345 70.29 24.991 201.1 25.449 5.61 64.341 10.65 64.341 10.65s16.399-157.78-17.332-201.22c9.56-64.38 55.117-226.3 55.117-226.3z" fill="#2c2858"/><path d="m224.457 1241.39-31.373-35.18c-.683-.76-1.651-1.21-2.672-1.22l-25.833-.16006c-.736-.00994-3.014 4.08006-2.519 4.62006l22.129 19.67c.102.11.232.19.378.24l37.951 14.08c.815.24 2.508-1.42 1.939-2.05" fill="#c4204a"/><path d="m222.062 1243.74-29.89-33.16c-.683-.76-1.651-1.2-2.672-1.22l-26.631-.48025c-.737-.00975-1.133.86025-.638 1.40025l21.045 23.21c.103.11.233.19.379.24l37.538 11.38c.814.25 1.438-.73.869-1.37" fill="#e62552"/><path d="m281.115 1274-21.615-10.6s-21.321-21.58-24.487-26.4c-4.743-2.4-13.717-8.44-15.734-8.67-2.018-.24-6.151.39-6.151.39l10.009 11.38s-4.755.95-10.818-2.91c-6.064-3.85-16.777-14.18-22.024-12.18-1.86 1.65-1.86 1.65-1.86 1.65s-3.313-3.54-6.436-2.22c-3.124 1.31 3.086 16.89 20.713 33.4 1.168 4.41 6.976 12.13 6.976 12.13l35.639 12.52z" fill="#f37a50"/><path d="m187.304 1215.58c1.265 1.27 3.086 1.5 4.065.52s.746-2.8-.52-4.06c-1.266-1.27-3.086-1.5-4.065-.52-.979.97-.746 2.79.52 4.06" fill="#c4204a"/><path d="m381.77 1115.05c-6.414 8.31 43.822 17.35 50.556.08 6.734-17.28-4.83-64.8-4.83-64.8l-45.803 9.73s8.424 44.17.077 54.99" fill="#f37a50"/><path d="m437.513 1011.55c3.857 36.74-16.415 68.99-45.278 72.02-28.861 3.03-55.385-24.31-59.241-61.06-3.857-36.74 16.415-68.99 45.277-72.02s55.386 24.31 59.242 61.06" fill="#f37a50"/><path d="m350.044 1033.33c-1.021 2.85-4.153 4.33-6.997 3.3-2.843-1.02-4.32-4.15-3.299-6.99 1.02-2.85 4.152-4.32 6.996-3.3 2.843 1.02 4.321 4.15 3.3 6.99" fill="#000"/><path d="m385.915 1025.5c-1.105 3.08-4.496 4.68-7.575 3.57-3.077-1.1-4.677-4.49-3.572-7.57s4.496-4.68 7.574-3.58c3.078 1.11 4.678 4.5 3.573 7.58" fill="#000"/><path d="m360.489 1032.19c-1.158 8.62-2.771 19.21-2.771 19.21s5.66 5.97 15.046 1.85c-4.694.15-9.806-.74-10.579-6.74s-1.696-14.32-1.696-14.32" fill="#de623c"/><path d="m348.439 1020.84c-.615.37-1.401.42-2.077.05-.067-.03-2.346-1.2-4.481-.38-1.505.57-2.71 2.05-3.58 4.39-.404 1.09-1.612 1.64-2.698 1.24s-1.64-1.61-1.236-2.7c1.319-3.55 3.362-5.86 6.075-6.87 3.971-1.49 7.763.55 7.922.63 1.017.56 1.39 1.83.835 2.85-.185.34-.451.61-.76.79" fill="#020205"/><path d="m375.729 1014.86c.701.15 1.459-.07 1.977-.63.051-.06 1.82-1.91 4.105-1.84 1.61.05 3.235 1.05 4.827 2.97.738.89 2.061 1.02 2.954.28s1.018-2.06.28-2.95c-2.414-2.92-5.105-4.43-7.999-4.5-4.238-.09-7.15 3.08-7.272 3.21-.777.86-.71 2.19.149 2.97.287.26.626.42.979.49" fill="#020205"/><path d="m426.783 1034.89c-19.013-15.92-13.763-40.24-13.763-40.24-9.221.6-11.805 4.55-11.805 4.55-7.413-8.52-5.609-16.54-5.609-16.54-19.982-2.17-25.833 11.96-41.085 20.3-20.889 11.42-50.885 9.95-60.817-16.63-1.437-3.85 2.216-7.58 6.107-6.26 3.608 1.22 8.113 1.78 13.128.28 0 0-6.103-4.02-8.31-11.26-1.218-3.99 2.918-7.44 6.711-5.69 5.686 2.61 15.289 3.94 29.878-3.07 9.71-4.67 28.706-27.36 44.151-28.09 12.626-.59 24.817 7 32.8 20.43 0 0 30.121-4.86 41.746 26.6 11.421 30.9-31.392 78.65-31.392 78.65s3.286-18.14-1.74-23.03" fill="#020205"/><path d="m362.815 1067.3c-1.19-.77-.894-2.58.483-2.92 3.501-.85 9.247-2.38 14.537-4.37 5.289-1.98 10.626-4.6 13.827-6.26 1.259-.65 2.672.52 2.281 1.88-1.201 4.19-4.36 11.06-12.467 14.09-8.108 3.04-14.999-.05-18.661-2.42" fill="#fff"/><path d="m413.245 1013.24c-6.185 6.1-7.151 15.15-2.157 20.21 4.994 5.07 14.057 4.22 20.242-1.88 6.186-6.1 7.151-15.15 2.156-20.22-4.993-5.06-14.055-4.21-20.241 1.89" fill="#f37a50"/><path d="m419.255 1030.85c-.27-.1-.521-.26-.732-.48-3.025-3.17-3.732-7.05-1.892-10.38 1.886-3.41 5.906-5.34 9.558-4.59 1.028.21 1.691 1.21 1.48 2.24-.21 1.03-1.213 1.69-2.241 1.48-2.002-.41-4.405.78-5.471 2.71-1.025 1.85-.558 3.96 1.315 5.92.725.76.697 1.96-.063 2.69-.538.51-1.299.64-1.954.41" fill="#de623c"/><path d="m325.938 1369.41c35.83 7.31 100.248 19.94 134.317 6.65 12.893-18.51 16.16-123.18 16.16-123.18 3.73-107.74-9.191-123.72-38.329-159.82-12.227 5.61-42.832 10.4-56.287 10.51 0 0-30.488 42.33-36.437 73.07-6.031 31.16-6.714 86.58-7.274 118.32-.623 35.25-7.587 52.25-12.15 74.45" fill="#3f964f"/><path d="m442.332 1125.76c20.958 40.8 16.212 85.98-44.727 174.93-42.676-3.72-51.045-39.29-51.045-39.29s11.726-44.17 26.957-99.72c15.232-55.55 59.643-53.77 68.815-35.92" fill="#0e6a41"/><path d="m256.023 1252.88 91.374 7.29s39.187-7.15 50.208 40.52c-19.614 15.27-70.241 21-153.282-9.83 8.787-11.96 11.7-37.98 11.7-37.98" fill="#0e6a41"/><path d="m382.074 1100.55-.868 24.57 61.821-25.92-7.486-19.88z" fill="#fff"/><path d="m843.478 505.078c-20.203 46.138-73.982 67.163-120.121 46.96-46.138-20.202-67.164-73.982-46.961-120.121 20.203-46.137 73.982-67.163 120.121-46.96 46.137 20.202 67.163 73.982 46.961 120.121" fill="#faba23"/><path d="m828.559 498.546c-18.002 42.264-71.773 58.044-109.848 32.507-24.212-15.776-37.367-45.166-32.83-73.966 7.08-48.569 60.328-77.023 104.103-57.21 37.256 15.948 55.427 60.896 38.575 98.669" fill="#fad332"/><path d="m754.809 531.481-.044-15.507c-8.906-.129-18.125-2.866-23.51-6.689l3.656-10.298c5.538 3.67 13.529 6.565 22.128 6.54 10.901-.03 18.253-6.346 18.229-15.098-.024-8.444-6.027-13.648-17.402-18.222-15.678-6.098-25.37-13.133-25.408-26.49-.036-12.744 8.996-22.442 23.115-24.785l-.044-15.507 9.519-.027.042 14.893c9.213.281 15.515 2.721 19.975 5.317l-3.81 10.144c-3.23-1.833-9.534-5.193-19.36-5.165-11.822.034-16.255 7.108-16.238 13.249.023 7.985 5.715 11.961 19.088 17.45 15.832 6.404 23.838 14.366 23.877306 28.031.033694 12.129-8.378306 23.516-24.185306 26.169l.044 15.968z" fill="#faba23"/><path d="m1007.07 240.509c-20.2 46.138-73.98 67.164-120.118 46.961-46.138-20.202-67.163-73.982-46.96-120.12 20.201-46.139 73.978-67.164 120.118-46.961 46.14 20.202 67.16 73.982 46.96 120.12" fill="#faba23"/><path d="m992.15 233.978c-18 42.264-71.77 58.044-109.843 32.507-24.213-15.776-37.368-45.167-32.83-73.966 7.08-48.57 60.323-77.023 104.103-57.209 37.25 15.947 55.43 60.895 38.57 98.668" fill="#fad332"/><path d="m918.4 266.914-.04-15.508c-8.91-.129-18.126-2.866-23.51-6.689l3.655-10.298c5.538 3.67 13.535 6.564 22.125 6.54 10.91-.03 18.26-6.346 18.23-15.098-.02-8.445-6.02-13.648-17.4-18.222-15.677-6.098-25.37-13.133-25.407-26.491-.036-12.743 8.996-22.442 23.117-24.784l-.05-15.508 9.52-.026.05 14.893c9.21.281 15.51 2.72 19.97 5.318l-3.81 10.144c-3.23-1.834-9.53-5.194-19.36-5.166-11.82.033-16.26 7.108-16.24 13.249.02 7.984 5.72 11.96 19.09 17.45 15.83 6.404 23.84 14.366 23.880239 28.031.029761 12.129-8.380239 23.515-24.190239 26.169l.05 15.968z" fill="#faba23"/><path d="m1703.23 240.509c-20.21 46.138-73.99 67.164-120.12 46.961-46.14-20.202-67.17-73.982-46.97-120.12 20.21-46.139 73.99-67.164 120.12-46.961 46.14 20.202 67.17 73.982 46.97 120.12" fill="#faba23"/><path d="m1688.31 233.978c-18.01 42.264-71.78 58.044-109.85 32.507-24.21-15.776-37.37-45.167-32.83-73.966 7.08-48.57 60.33-77.023 104.1-57.209 37.26 15.947 55.43 60.895 38.58 98.668" fill="#fad332"/><path d="m1614.56 266.914-.05-15.508c-8.9-.129-18.12-2.866-23.51-6.689l3.66-10.298c5.54 3.67 13.53 6.564 22.13 6.54 10.9-.03 18.25-6.346 18.23-15.098-.03-8.445-6.03-13.648-17.41-18.222-15.67-6.098-25.37-13.133-25.4-26.491-.04-12.743 8.99-22.442 23.11-24.784l-.04-15.508 9.52-.026.04 14.893c9.21.281 15.51 2.72 19.97 5.318l-3.81 10.144c-3.23-1.834-9.53-5.194-19.36-5.166-11.82.033-16.25 7.108-16.24 13.249.03 7.984 5.72 11.96 19.09 17.45 15.84 6.404 23.84 14.366 23.88024 28.031.02976 12.129-8.38024 23.515-24.19024 26.169l.05 15.968z" fill="#faba23"/><path d="m1889.08 505.078c-20.2 46.138-73.98 67.163-120.12 46.96-46.14-20.202-67.16-73.982-46.96-120.121 20.2-46.137 73.98-67.163 120.12-46.96 46.14 20.202 67.17 73.982 46.96 120.121" fill="#faba23"/><path d="m1874.16 498.546c-18 42.264-71.77 58.044-109.84 32.507-24.22-15.776-37.37-45.166-32.83-73.966 7.08-48.569 60.32-77.023 104.1-57.21 37.26 15.948 55.43 60.896 38.57 98.669" fill="#fad332"/><path d="m1800.41 531.481-.04-15.507c-8.91-.129-18.13-2.866-23.51-6.689l3.66-10.298c5.53 3.67 13.53 6.565 22.12 6.54 10.9-.03 18.26-6.346 18.23-15.098-.02-8.444-6.02-13.648-17.4-18.222-15.68-6.098-25.37-13.133-25.41-26.49-.03-12.744 9-22.442 23.12-24.785l-.05-15.507 9.52-.027.05 14.893c9.21.281 15.51 2.721 19.97 5.317l-3.81 10.144c-3.23-1.833-9.53-5.193-19.36-5.165-11.82.034-16.25 7.108-16.24 13.249.03 7.985 5.72 11.961 19.09 17.45 15.83 6.404 23.84 14.366 23.88024 28.031.02976 12.129-8.38024 23.516-24.19024 26.169l.05 15.968z" fill="#faba23"/><path d="m1382.09 128.134c-20.2 46.138-73.98 67.164-120.12 46.961-46.14-20.202-67.16-73.982-46.96-120.12 20.2-46.139 73.98-67.163 120.12-46.961 46.14 20.203 67.16 73.983 46.96 120.12" fill="#faba23"/><path d="m1367.17 121.604c-18 42.263-71.77 58.044-109.84 32.506-24.22-15.776-37.37-45.166-32.83-73.965 7.08-48.57 60.32-77.023 104.1-57.21 37.25 15.947 55.43 60.895 38.57 98.669" fill="#fad332"/><path d="m1293.42 154.539-.04-15.507c-8.91-.129-18.13-2.866-23.51-6.69l3.66-10.298c5.53 3.67 13.53 6.565 22.12 6.54 10.9-.03 18.26-6.346 18.23-15.098-.02-8.444-6.02-13.648-17.4-18.221-15.68-6.098-25.37-13.133-25.41-26.492-.03-12.743 9-22.441 23.12-24.784l-.05-15.507 9.52-.027.05 14.893c9.21.281 15.51 2.72 19.97 5.318l-3.81 10.144c-3.23-1.833-9.53-5.193-19.36-5.165-11.82.032-16.26 7.107-16.24 13.249.02 7.984 5.72 11.96 19.09 17.45 15.83 6.404 23.84 14.365 23.88024 28.03.02976 12.129-8.38024 23.516-24.19024 26.17l.05 15.968z" fill="#faba23"/><path d="m1660.22 611.104c-4.41 0-8-3.582-8-8 0-6.515-.16-13.105-.49-19.586-.23-4.413 3.16-8.172 7.58-8.397 4.4-.215 8.17 3.169 8.39 7.582.35 6.751.52 13.615.52 20.401 0 4.418-3.58 8-8 8" fill="#95a6db"/><path d="m1213.4 229.285c-3.87 0-7.27-2.817-7.89-6.763-.68-4.365 2.3-8.458 6.67-9.142 13.52-2.119 27.34-3.55 41.07-4.253 4.42-.219 8.17 3.169 8.4 7.581.23 4.413-3.17 8.173-7.58 8.398-13.18.675-26.44 2.047-39.42 4.081-.42.065-.83.098-1.25.098zm120.98.051c-.42 0-.84-.032-1.26-.099-12.97-2.044-26.23-3.427-39.41-4.113-4.41-.23-7.8-3.993-7.57-8.405s4-7.8 8.4-7.573c13.73.714 27.55 2.156 41.07 4.287 4.37.688 7.35 4.783 6.66 9.147-.62 3.942-4.02 6.756-7.89 6.756zm-199.06 20.792c-3.22 0-6.25-1.954-7.47-5.136-1.58-4.125.48-8.752 4.6-10.335 12.82-4.918 26.05-9.207 39.31-12.746 4.28-1.142 8.66 1.399 9.79 5.667 1.14 4.269-1.39 8.653-5.66 9.792-12.73 3.395-25.41 7.508-37.71 12.226-.94.361-1.91.532-2.86.532zm277.11.115c-.96 0-1.93-.172-2.87-.535-12.29-4.728-24.97-8.85-37.68-12.253-4.27-1.142-6.8-5.529-5.66-9.797 1.15-4.267 5.53-6.802 9.8-5.659 13.25 3.549 26.47 7.846 39.28 12.775 4.13 1.586 6.18 6.215 4.6 10.339-1.22 3.179-4.26 5.13-7.47 5.13zm-349.12 36.611c-2.62 0-5.18-1.281-6.71-3.639-2.41-3.704-1.36-8.659 2.34-11.068 11.52-7.488 23.55-14.444 35.77-20.677 3.93-2.007 8.75-.446 10.76 3.491 2.01 3.935.44 8.754-3.49 10.762-11.72 5.979-23.27 12.653-34.32 19.838-1.34.875-2.85 1.293-4.35 1.293zm421.05.144c-1.5 0-3.01-.42-4.36-1.298-11.03-7.186-22.57-13.865-34.28-19.85-3.93-2.012-5.49-6.831-3.48-10.765s6.82-5.495 10.76-3.483c12.21 6.239 24.23 13.201 35.73 20.69 3.71 2.411 4.75 7.367 2.34 11.07-1.53 2.355-4.1 3.636-6.71 3.636zm-483.86 50.74c-2.05 0-4.1-.781-5.66-2.344-3.12-3.125-3.12-8.191 0-11.313 9.71-9.704 20.04-19.002 30.7-27.639 3.43-2.78 8.47-2.253 11.25 1.18 2.78 3.432 2.25 8.471-1.18 11.252-10.23 8.288-20.14 17.211-29.45 26.522-1.57 1.562-3.61 2.342-5.66 2.342zm546.62.172c-2.05 0-4.09-.782-5.66-2.346-9.3-9.314-19.21-18.244-29.43-26.538-3.43-2.784-3.95-7.822-1.17-11.253 2.78-3.43 7.82-3.957 11.25-1.171 10.65 8.643 20.97 17.946 30.67 27.653 3.13 3.126 3.12 8.19 0 11.314-1.57 1.56-3.61 2.341-5.66 2.341zm-597.53 62.59c-1.5 0-3.01-.418-4.36-1.296-3.7-2.411-4.75-7.367-2.34-11.07 7.48-11.489 15.66-22.719 24.31-33.381 2.78-3.432 7.82-3.958 11.25-1.173 3.43 2.784 3.95 7.821 1.17 11.253-8.3 10.23-16.14 21.008-23.32 32.032-1.53 2.355-4.1 3.635-6.71 3.635zm648.42.221c-2.62 0-5.18-1.283-6.72-3.64-7.17-11.031-15.01-21.816-23.31-32.06-2.78-3.432-2.25-8.471 1.19-11.251 3.43-2.782 8.47-2.252 11.25 1.18 8.64 10.675 16.82 21.915 24.29 33.41 2.41 3.704 1.36 8.659-2.35 11.068-1.35.874-2.86 1.293-4.35 1.293zm-685.17 71.723c-.95 0-1.92-.172-2.86-.534-4.128-1.586-6.187-6.214-4.601-10.338 4.921-12.794 10.581-25.479 16.821-37.703 2.01-3.935 6.83-5.497 10.77-3.484 3.93 2.009 5.49 6.828 3.48 10.763-5.99 11.726-11.42 23.893-16.14 36.165-1.22 3.18-4.25 5.131-7.47 5.131zm721.88.301c-3.22 0-6.25-1.954-7.47-5.138-4.71-12.291-10.14-24.473-16.12-36.209-2.01-3.936-.45-8.753 3.49-10.761 3.94-2.009 8.75-.444 10.76 3.491 6.24 12.236 11.9 24.936 16.81 37.75 1.58 4.125-.48 8.752-4.6 10.334-.95.362-1.92.533-2.87.533zm-742.76 77.764c-.414 0-.832-.031-1.253-.098-4.366-.688-7.347-4.783-6.66-9.147 2.137-13.568 5.018-27.162 8.562-40.408 1.142-4.268 5.528-6.801 9.797-5.659 4.267 1.141 6.804 5.528 5.659 9.796-3.399 12.704-6.163 25.744-8.211 38.759-.622 3.943-4.024 6.757-7.894 6.757zm763.58.338c-3.87 0-7.27-2.818-7.89-6.764-2.04-13.01-4.79-26.054-8.18-38.768-1.14-4.269 1.4-8.652 5.67-9.791 4.28-1.139 8.66 1.401 9.79 5.67 3.54 13.255 6.4 26.852 8.53 40.414.68 4.366-2.3 8.459-6.67 9.142-.42.065-.83.097-1.25.097z" fill="#95a6db"/><path d="m887.228 611.104c-4.419 0-8-3.582-8-8 0-6.783.173-13.646.518-20.401.225-4.413 3.97-7.812 8.397-7.582 4.413.225 7.807 3.984 7.583 8.397-.331 6.484-.498 13.074-.498 19.586 0 4.418-3.582 8-8 8" fill="#95a6db"/><path d="m995.52 611.104c-4.42 0-8-3.582-8-8 0-6.84.24-13.754.72-20.551.32-4.407 4.15-7.723 8.55-7.414 4.41.313 7.73 4.139 7.41 8.547-.45 6.42-.68 12.954-.68 19.418 0 4.418-3.58 8-8 8" fill="#95a6db"/><path d="m1332.74 339.167c-.56 0-1.13-.059-1.7-.182-12.49-2.699-25.33-4.523-38.14-5.421-4.41-.308-7.73-4.131-7.42-8.54.31-4.406 4.12-7.727 8.54-7.42 13.57.95 27.16 2.882 40.4 5.742 4.32.933 7.07 5.19 6.13 9.508-.81 3.75-4.12 6.313-7.81 6.313zm-118.24.044c-3.68 0-6.99-2.559-7.81-6.306-.93-4.318 1.81-8.577 6.13-9.513 13.24-2.87 26.83-4.812 40.4-5.773 4.4-.312 8.23 3.008 8.55 7.415.31 4.407-3.01 8.233-7.42 8.545-12.81.907-25.65 2.741-38.14 5.45-.57.124-1.14.182-1.71.182zm192.43 27.593c-1.3 0-2.61-.316-3.83-.982-11.26-6.153-23.05-11.54-35.06-16.012-4.14-1.542-6.24-6.149-4.7-10.289s6.15-6.25 10.29-4.705c12.72 4.739 25.21 10.447 37.14 16.966 3.88 2.119 5.31 6.979 3.19 10.856-1.45 2.659-4.2 4.166-7.03 4.166zm-266.54.071c-2.83 0-5.57-1.504-7.03-4.163-2.12-3.875-.69-8.736 3.18-10.857 11.92-6.52 24.4-12.23 37.11-16.973 4.13-1.542 8.74.558 10.29 4.698 1.54 4.139-.56 8.747-4.7 10.293-11.99 4.476-23.77 9.865-35.02 16.018-1.22.667-2.53.984-3.83.984zm329.92 47.368c-2.04 0-4.09-.779-5.65-2.338-9.08-9.064-18.88-17.555-29.14-25.235-3.53-2.648-4.25-7.661-1.61-11.198 2.65-3.538 7.67-4.255 11.2-1.609 10.86 8.132 21.24 17.122 30.85 26.719 3.13 3.123 3.13 8.188.01 11.314-1.56 1.564-3.61 2.347-5.66 2.347zm-393.26.09c-2.05 0-4.09-.782-5.66-2.344-3.12-3.126-3.12-8.191.01-11.315 9.6-9.601 19.98-18.593 30.83-26.73 3.54-2.65 8.55-1.931 11.2 1.604s1.93 8.55-1.6 11.2c-10.25 7.683-20.05 16.176-29.12 25.243-1.57 1.561-3.61 2.342-5.66 2.342zm440.78 63.193c-2.82 0-5.56-1.502-7.02-4.155-6.15-11.224-13.18-22.115-20.88-32.371-2.65-3.532-1.94-8.547 1.59-11.201 3.53-2.653 8.55-1.94 11.2 1.593 8.16 10.862 15.6 22.398 22.12 34.286 2.12 3.874.71 8.737-3.17 10.861-1.22.669-2.54.987-3.84.987zm-488.29.136c-1.3 0-2.61-.317-3.83-.985-3.88-2.123-5.3-6.984-3.18-10.86 6.52-11.898 13.96-23.443 22.12-34.316 2.65-3.534 7.66-4.249 11.2-1.598 3.53 2.651 4.25 7.666 1.59 11.2-7.7 10.267-14.72 21.167-20.87 32.4-1.46 2.655-4.2 4.159-7.03 4.159zm516.01 73.963c-3.68 0-6.99-2.556-7.81-6.3-2.72-12.522-6.38-24.955-10.88-36.955-1.55-4.138.55-8.747 4.69-10.297 4.14-1.549 8.75.55 10.3 4.688 4.76 12.715 8.64 25.89 11.53 39.159.94 4.317-1.8 8.579-6.12 9.519-.57.125-1.14.186-1.71.186zm-543.7.211c-.56 0-1.13-.059-1.7-.183-4.32-.937-7.06-5.196-6.12-9.515 2.88-13.28 6.75-26.466 11.5-39.192 1.55-4.139 6.16-6.239 10.3-4.694 4.14 1.546 6.24 6.155 4.69 10.294-4.48 12.009-8.14 24.452-10.86 36.985-.81 3.746-4.12 6.305-7.81 6.305z" fill="#95a6db"/><path d="m1551.93 611.104c-4.41 0-8-3.582-8-8 0-6.467-.23-13-.68-19.418-.32-4.407 3-8.233 7.41-8.547 4.42-.318 8.23 3.007 8.55 7.414.48 6.794.72 13.708.72 20.551 0 4.418-3.58 8-8 8" fill="#95a6db"/><path d="m1658.81 615.785-.1-.002c-1.54-.03-2.98-.773-3.91-2.013l-51.06-68.671c-1.65-2.214-1.19-5.343 1.03-6.99 2.21-1.645 5.34-1.185 6.99 1.028l47.21 63.492 47.02-58.363c1.73-2.149 4.87-2.486 7.02-.756 2.15 1.731 2.49 4.875.76 7.023l-51.07 63.389c-.95 1.179-2.38 1.863-3.89 1.863" fill="#95a6db"/><path d="m995.36 615.785-.1-.002c-1.54-.03-2.99-.773-3.91-2.013l-51.06-68.671c-1.65-2.214-1.19-5.343 1.03-6.99 2.21-1.646 5.34-1.186 6.99 1.028l47.21 63.492 47.01-58.363c1.73-2.148 4.88-2.488 7.03-.756 2.15 1.731 2.49 4.875.75 7.023l-51.06 63.389c-.95 1.179-2.38 1.863-3.89 1.863" fill="#95a6db"/><path d="m2010.58 1693.21v20.26c0 7.91-6.42 14.33-14.33 14.33h-247.27c-7.92 0-14.34-6.42-14.34-14.33v-20.26c0-3.53 1.27-6.75 3.39-9.25 2.63-3.11 6.56-5.08 10.95-5.08h247.27c4.38 0 8.31 1.97 10.95 5.08 2.11 2.5 3.38 5.72 3.38 9.25" fill="#fad332"/><g fill="#faba23" transform="translate(1738 1678)"><path d="m10.35 49.8h7.18v-48.92h-7.18z"/><path d="m40.47 49.8h7.18v-48.92h-7.18z"/><path d="m70.59 49.8h7.18v-48.92h-7.18z"/><path d="m100.71 49.8h7.18v-48.92h-7.18z"/><path d="m130.82 49.8h7.19v-48.92h-7.19z"/><path d="m160.94 49.8h7.19v-48.92h-7.19z"/><path d="m191.06 49.8h7.18v-48.92h-7.18z"/><path d="m221.18 49.8h7.18v-48.92h-7.18z"/><path d="m251.3 49.8h7.18v-48.92h-7.18z"/><path d="m269.2 5.96h-269.17c2.63-3.11 6.56-5.08 10.95-5.08h247.27c4.38 0 8.31 1.97 10.95 5.08"/><path d="m269.2 44.72h-269.17c2.63 3.11 6.56 5.08 10.95 5.08h247.27c4.38 0 8.31-1.97 10.95-5.08"/></g><path d="m2027.88 1644.28v20.26c0 7.92-6.42 14.34-14.34 14.34h-247.27c-7.91 0-14.33-6.42-14.33-14.34v-20.26c0-3.53 1.27-6.75 3.38-9.25 2.64-3.11 6.56-5.08 10.95-5.08h247.27c4.39 0 8.32 1.97 10.95 5.08 2.12 2.5 3.39 5.72 3.39 9.25" fill="#fad332"/><g fill="#faba23"><path d="m1765.64 1678.87h7.18v-48.92h-7.18z"/><path d="m1795.76 1678.87h7.18v-48.92h-7.18z"/><path d="m1825.88 1678.87h7.18v-48.92h-7.18z"/><path d="m1856 1678.87h7.18v-48.92h-7.18z"/><path d="m1886.12 1678.87h7.18v-48.92h-7.18z"/><path d="m1916.24 1678.87h7.18v-48.92h-7.18z"/><path d="m1946.36 1678.87h7.18v-48.92h-7.18z"/><path d="m1976.48 1678.87h7.18v-48.92h-7.18z"/><path d="m2006.6 1678.87h7.18v-48.92h-7.18z"/><path d="m2024.49 1635.03h-269.17c2.64-3.11 6.56-5.08 10.95-5.08h247.27c4.39 0 8.32 1.97 10.95 5.08"/><path d="m2024.49 1673.79h-269.17c2.64 3.11 6.56 5.08 10.95 5.08h247.27c4.39 0 8.32-1.97 10.95-5.08"/></g><path d="m2014.47 1595.44v20.26c0 7.92-6.42 14.33-14.34 14.33h-247.27c-7.91 0-14.33-6.41-14.33-14.33v-20.26c0-3.53 1.27-6.75 3.38-9.25 2.64-3.11 6.56-5.08 10.95-5.08h247.27c4.39 0 8.32 1.97 10.95 5.08 2.12 2.5 3.39 5.72 3.39 9.25" fill="#fad332"/><path d="m1752.23 1630.03h7.18v-48.92h-7.18z" fill="#faba23"/><path d="m1782.35 1630.03h7.18v-48.92h-7.18z" fill="#faba23"/><path d="m1812.47 1630.03h7.18v-48.92h-7.18z" fill="#faba23"/><path d="m1842.59 1630.03h7.18v-48.92h-7.18z" fill="#faba23"/><path d="m1872.71 1630.03h7.18v-48.92h-7.18z" fill="#faba23"/><path d="m1902.83 1630.03h7.18v-48.92h-7.18z" fill="#faba23"/><path d="m1932.95 1630.03h7.18v-48.92h-7.18z" fill="#faba23"/><path d="m1963.07 1630.03h7.18v-48.92h-7.18z" fill="#faba23"/><path d="m1993.19 1630.03h7.18v-48.92h-7.18z" fill="#faba23"/><path d="m2011.08 1586.19h-269.17c2.64-3.11 6.56-5.08 10.95-5.08h247.27c4.39 0 8.32 1.97 10.95 5.08" fill="#faba23"/><path d="m2011.08 1624.95h-269.17c2.64 3.11 6.56 5.08 10.95 5.08h247.27c4.39 0 8.32-1.97 10.95-5.08" fill="#faba23"/><path d="m2019.99 1547.49v20.26c0 7.91-6.42 14.33-14.34 14.33h-247.27c-7.91 0-14.33-6.42-14.33-14.33v-20.26c0-3.53 1.27-6.76 3.38-9.26 2.63-3.1 6.56-5.08 10.95-5.08h247.27c4.39 0 8.32 1.98 10.95 5.08 2.11 2.5 3.39 5.73 3.39 9.26" fill="#fad332"/><path d="m1757.75 1582.08h7.18v-48.93h-7.18z" fill="#faba23"/><path d="m1787.87 1582.08h7.18v-48.93h-7.18z" fill="#faba23"/><path d="m1817.99 1582.08h7.18v-48.93h-7.18z" fill="#faba23"/><path d="m1848.11 1582.08h7.18v-48.93h-7.18z" fill="#faba23"/><path d="m1878.23 1582.08h7.18v-48.93h-7.18z" fill="#faba23"/><path d="m1908.35 1582.08h7.18v-48.93h-7.18z" fill="#faba23"/><path d="m1938.47 1582.08h7.18v-48.93h-7.18z" fill="#faba23"/><path d="m1968.59 1582.08h7.18v-48.93h-7.18z" fill="#faba23"/><path d="m1998.71 1582.08h7.18v-48.93h-7.18z" fill="#faba23"/><path d="m2016.6 1538.23h-269.17c2.63-3.1 6.56-5.08 10.95-5.08h247.27c4.39 0 8.32 1.98 10.95 5.08" fill="#faba23"/><path d="m2016.6 1577h-269.17c2.63 3.11 6.56 5.08 10.95 5.08h247.27c4.39 0 8.32-1.97 10.95-5.08" fill="#faba23"/><path d="m1989.16 1497.83v20.25c0 7.92-6.42 14.34-14.33 14.34h-247.27c-7.92 0-14.34-6.42-14.34-14.34v-20.25c0-3.53 1.27-6.76 3.39-9.26 2.63-3.11 6.56-5.08 10.95-5.08h247.27c4.38 0 8.31 1.97 10.95 5.08 2.11 2.5 3.38 5.73 3.38 9.26" fill="#fad332"/><path d="m1726.93 1532.42h7.18v-48.93h-7.18z" fill="#faba23"/><path d="m1757.05 1532.42h7.18v-48.93h-7.18z" fill="#faba23"/><path d="m1787.17 1532.42h7.18v-48.93h-7.18z" fill="#faba23"/><path d="m1817.28 1532.42h7.19v-48.93h-7.19z" fill="#faba23"/><path d="m1847.4 1532.42h7.19v-48.93h-7.19z" fill="#faba23"/><path d="m1877.52 1532.42h7.19v-48.93h-7.19z" fill="#faba23"/><path d="m1907.64 1532.42h7.18v-48.93h-7.18z" fill="#faba23"/><path d="m1937.76 1532.42h7.18v-48.93h-7.18z" fill="#faba23"/><path d="m1967.88 1532.42h7.18v-48.93h-7.18z" fill="#faba23"/><path d="m1985.78 1488.57h-269.17c2.63-3.11 6.56-5.08 10.95-5.08h247.27c4.38 0 8.31 1.97 10.95 5.08" fill="#faba23"/><path d="m1985.78 1527.33h-269.17c2.63 3.11 6.56 5.09 10.95 5.09h247.27c4.38 0 8.31-1.98 10.95-5.09" fill="#faba23"/><path d="m2019.49 1449.47v20.26c0 7.91-6.42 14.33-14.33 14.33h-247.27c-7.92 0-14.34-6.42-14.34-14.33v-20.26c0-3.53 1.28-6.75 3.39-9.25 2.63-3.11 6.56-5.08 10.95-5.08h247.27c4.39 0 8.32 1.97 10.95 5.08 2.11 2.5 3.38 5.72 3.38 9.25" fill="#fad332"/><path d="m1757.26 1484.06h7.18v-48.92h-7.18z" fill="#faba23"/><path d="m1787.38 1484.06h7.18v-48.92h-7.18z" fill="#faba23"/><path d="m1817.5 1484.06h7.18v-48.92h-7.18z" fill="#faba23"/><path d="m1847.62 1484.06h7.18v-48.92h-7.18z" fill="#faba23"/><path d="m1877.74 1484.06h7.18v-48.92h-7.18z" fill="#faba23"/><path d="m1907.86 1484.06h7.18v-48.92h-7.18z" fill="#faba23"/><path d="m1937.97 1484.06h7.19v-48.92h-7.19z" fill="#faba23"/><path d="m1968.09 1484.06h7.19v-48.92h-7.19z" fill="#faba23"/><path d="m1998.21 1484.06h7.18v-48.92h-7.18z" fill="#faba23"/><path d="m2016.11 1440.22h-269.17c2.63-3.11 6.56-5.08 10.95-5.08h247.27c4.39 0 8.32 1.97 10.95 5.08" fill="#faba23"/><path d="m2016.11 1478.98h-269.17c2.63 3.11 6.56 5.08 10.95 5.08h247.27c4.39 0 8.32-1.97 10.95-5.08" fill="#faba23"/><path d="m2008.74 1400.39v20.26c0 7.92-6.42 14.34-14.34 14.34h-247.27c-7.91 0-14.33-6.42-14.33-14.34v-20.26c0-3.52 1.27-6.75 3.38-9.25 2.63-3.11 6.56-5.08 10.95-5.08h247.27c4.39 0 8.32 1.97 10.95 5.08 2.11 2.5 3.39 5.73 3.39 9.25" fill="#fad332"/><path d="m1746.5 1434.99h7.18v-48.93h-7.18z" fill="#faba23"/><path d="m1776.62 1434.99h7.18v-48.93h-7.18z" fill="#faba23"/><path d="m1806.74 1434.99h7.18v-48.93h-7.18z" fill="#faba23"/><path d="m1836.86 1434.99h7.18v-48.93h-7.18z" fill="#faba23"/><path d="m1866.98 1434.99h7.18v-48.93h-7.18z" fill="#faba23"/><path d="m1897.1 1434.99h7.18v-48.93h-7.18z" fill="#faba23"/><path d="m1927.22 1434.99h7.18v-48.93h-7.18z" fill="#faba23"/><path d="m1957.34 1434.99h7.18v-48.93h-7.18z" fill="#faba23"/><path d="m1987.46 1434.99h7.18v-48.93h-7.18z" fill="#faba23"/><path d="m2005.35 1391.14h-269.17c2.63-3.11 6.56-5.08 10.95-5.08h247.27c4.39 0 8.32 1.97 10.95 5.08" fill="#faba23"/><path d="m2005.35 1429.91h-269.17c2.63 3.1 6.56 5.08 10.95 5.08h247.27c4.39 0 8.32-1.98 10.95-5.08" fill="#faba23"/><path d="m2023.51 1351.74v20.26c0 7.91-6.42 14.33-14.33 14.33h-247.27c-7.92 0-14.34-6.42-14.34-14.33v-20.26c0-3.53 1.27-6.75 3.39-9.25 2.63-3.11 6.56-5.08 10.95-5.08h247.27c4.39 0 8.31 1.97 10.95 5.08 2.11 2.5 3.38 5.72 3.38 9.25" fill="#fad332"/><g fill="#faba23" transform="translate(1592 1337)"><path d="m169.28 49.33h7.18v-48.92h-7.18z"/><path d="m199.4 49.33h7.18v-48.92h-7.18z"/><path d="m229.52 49.33h7.18v-48.92h-7.18z"/><path d="m259.64 49.33h7.18v-48.92h-7.18z"/><path d="m289.76 49.33h7.18v-48.92h-7.18z"/><path d="m319.88 49.33h7.18v-48.92h-7.18z"/><path d="m349.99 49.33h7.19v-48.92h-7.19z"/><path d="m380.11 49.33h7.18v-48.92h-7.18z"/><path d="m410.23 49.33h7.18v-48.92h-7.18z"/><path d="m428.13 5.49h-269.17c2.63-3.11 6.56-5.08 10.95-5.08h247.27c4.39 0 8.31 1.97 10.95 5.08"/><path d="m428.13 44.25h-269.17c2.63 3.11 6.56 5.08 10.95 5.08h247.27c4.39 0 8.31-1.97 10.95-5.08"/><path d="m288.45 290.85c-25.04 77.55-108.22 120.12-185.77 95.08-77.56-25.05-120.13-108.22-95.08-185.78 25.04-77.56 108.22-120.13 185.77-95.08 77.56 25.05 120.13 108.22 95.08 185.78"/></g><path d="m1855.38 1619.75c-20.58 63.71-88.9 98.67-152.6 78.09-6.65-2.14-12.99-4.81-18.98-7.94-10.15-5.29-19.3-11.9-27.33-19.55-3.04-2.9-5.92-5.95-8.64-9.12-19.86-23.32-30.54-53.74-28.88-85.1.54-10.26 2.41-20.63 5.72-30.88 15.35-47.51 57.25-79.04 103.98-83.46 15.93-1.51 32.43.13 48.63 5.36 14.02 4.53 26.65 11.36 37.59 19.97 3.31 2.59 6.47 5.34 9.46 8.25 8.13 7.87 15.07 16.81 20.66 26.51 16.54 28.65 21.35 63.91 10.39 97.87" fill="#fad332"/><path d="m1814.87 1487.12-167.04 174.11c-19.86-23.32-30.54-53.74-28.88-85.1l109.7-114.34c15.93-1.51 32.43.13 48.63 5.36 14.02 4.53 26.65 11.36 37.59 19.97" fill="#faee6c"/><path d="m1844.99 1521.88-161.19 168.02c-10.15-5.29-19.3-11.9-27.33-19.55l167.86-174.98c8.13 7.87 15.07 16.81 20.66 26.51" fill="#faee6c"/><path d="m1748.16 1467.28c-14.32-1.5-16.94-.09-23.37 12.61 1.6-14.14.19-16.76-12.61-23.36 14.32 1.5 16.94.09 23.37-12.61-1.51 14.32-.09 16.93 12.61 23.36" fill="#fff"/><path d="m1697.48 1694.96c-12.09-1.27-14.29-.08-19.72 10.64 1.35-11.94.16-14.14-10.64-19.72 12.08 1.27 14.29.08 19.72-10.64-1.27 12.09-.08 14.29 10.64 19.72" fill="#fff"/><path d="m1835.68 776.673c-84.9 0-153.97 69.067-153.97 153.962s69.07 153.965 153.97 153.965c84.89 0 153.96-69.07 153.96-153.965s-69.07-153.962-153.96-153.962zm0 315.927c-89.31 0-161.97-72.66-161.97-161.965 0-89.306 72.66-161.962 161.97-161.962 89.3 0 161.96 72.656 161.96 161.962 0 89.305-72.66 161.965-161.96 161.965z" fill="#e3eaff"/><path d="m1835.68 1022.56c-11.88 0-21.5-9.63-21.5-21.5v-297.177c0-11.874 9.62-21.5 21.5-21.5 11.87 0 21.5 9.626 21.5 21.5v297.177c0 11.87-9.63 21.5-21.5 21.5" fill="#e3eaff"/><path d="m1835.68 776.673c-84.9 0-153.97 69.067-153.97 153.962s69.07 153.965 153.97 153.965c84.89 0 153.96-69.07 153.96-153.965s-69.07-153.962-153.96-153.962zm0 315.927c-89.31 0-161.97-72.66-161.97-161.965 0-89.306 72.66-161.962 161.97-161.962 89.3 0 161.96 72.656 161.96 161.962 0 89.305-72.66 161.965-161.96 161.965z" fill="#e3eaff"/><path d="m1835.68 1022.56c-11.88 0-21.5-9.63-21.5-21.5v-297.177c0-11.874 9.62-21.5 21.5-21.5 11.87 0 21.5 9.626 21.5 21.5v297.177c0 11.87-9.63 21.5-21.5 21.5" fill="#e3eaff"/><path d="m1837.15 1040.21c-.27 0-.55-.01-.83-.02-6.58-.25-12.68-3.51-16.55-8.83l-89.28-114.394c-6.99-9.599-4.88-23.047 4.72-30.036 9.6-6.99 23.05-4.874 30.04 4.725l73.25 92.375 68.64-93.685c7.71-9.029 21.28-10.094 30.31-2.381s10.09 21.285 2.38 30.313l-86.33 114.393c-4.1 4.79-10.07 7.54-16.35 7.54" fill="#e3eaff"/><path d="m762.356 760.206c-84.895 0-153.962 69.067-153.962 153.962 0 84.892 69.067 153.962 153.962 153.962s153.964-69.07 153.964-153.962c0-84.895-69.069-153.962-153.964-153.962zm0 315.924c-89.307 0-161.962-72.66-161.962-161.962 0-89.306 72.655-161.962 161.962-161.962 89.306 0 161.964 72.656 161.964 161.962 0 89.302-72.658 161.962-161.964 161.962z" fill="#e3eaff"/><path d="m879.564 914.168c0 64.732-52.476 117.212-117.208 117.212s-117.209-52.48-117.209-117.212 52.477-117.208 117.209-117.208 117.208 52.476 117.208 117.208" fill="#e3eaff"/><path d="m851.131 963.36c-17.211 31.32-50.512 52.55-88.772 52.55-38.268 0-71.568-21.23-88.78-52.55 10.882-19.36 27.928-34.807 48.48-43.676-8.786-9.668-14.14-22.501-14.14-36.594 0-30.063 24.369-54.44 54.44-54.44 30.063 0 54.432 24.377 54.432 54.44 0 14.093-5.353 26.926-14.139 36.594 20.551 8.869 37.597 24.316 48.479 43.676" fill="#95a6db"/><path d="m2004.63 1191.88-67.96-36.55c-1.91 3.57-3.83 7.13-5.75 10.69-2.77 5.17 10.27 17.58 29.14 27.73s36.42 14.19 39.2 9.02c.26-.47 5.37-10.89 5.37-10.89" fill="#faba23"/><path d="m2004.7 1192.66c-2.78 5.16-20.33 1.12-39.2-9.02-18.87-10.15-31.91-22.57-29.13-27.73 2.77-5.17 20.32-1.13 39.19 9.02s31.92 22.56 29.14 27.73" fill="#fad332"/><path d="m1702.66 1329.22-68.77 11.17c.58 3.6 1.17 7.21 1.75 10.82.85 5.22 17.02 6.95 36.12 3.85 19.1-3.11 33.89-9.86 33.04-15.09-.07-.48-2.14-10.75-2.14-10.75" fill="#faba23"/><path d="m1703.14 1329.73c.85 5.23-13.94 11.98-33.04 15.09-19.1 3.1-35.27 1.37-36.12-3.85-.85-5.23 13.95-11.98 33.04-15.09 19.1-3.1 35.27-1.37 36.12 3.85" fill="#fad332"/><path d="m1784.83 1208.56-62.51-30.78c-1.61 3.28-3.22 6.55-4.84 9.83-2.34 4.75 9.84 15.53 27.19 24.08 17.36 8.55 33.33 11.63 35.67 6.88.21-.44 4.49-10.01 4.49-10.01" fill="#faba23"/><path d="m1784.92 1209.26c-2.34 4.75-18.31 1.68-35.66-6.87-17.36-8.55-29.54-19.33-27.19-24.08 2.34-4.76 18.3-1.68 35.66 6.87s29.53 19.33 27.19 24.08" fill="#fad332"/><path d="m1691.66 1092.44-71.99 11.69c.61 3.77 1.22 7.55 1.84 11.32.89 5.47 17.81 7.28 37.8 4.03 19.99-3.24 35.48-10.31 34.59-15.79-.08-.5-2.24-11.25-2.24-11.25" fill="#faba23"/><path d="m1692.16 1092.98c.89 5.47-14.6 12.54-34.59 15.78-19.99 3.25-36.91 1.45-37.8-4.02-.89-5.48 14.59-12.55 34.58-15.79 19.99-3.25 36.92-1.45 37.81 4.03" fill="#fad332"/><path d="m976.85 1334.23h-436.56c-19.396 0-35.121-15.72-35.121-35.12v-92.34c0-19.39 15.725-35.12 35.121-35.12h436.56c19.4 0 35.12 15.73 35.12 35.12v92.34c0 19.4-15.72 35.12-35.12 35.12" fill="#e3eaff"/><path d="m662.599 1230.07v45.74c0 12.33-9.99 22.32-22.32 22.32h-86.5c-4.54 0-8.77-1.36-12.3-3.7-6.03-3.99-10.01-10.84-10.01-18.62v-45.74c0-12.33 9.99-22.32 22.31-22.32h86.5c5.03 0 9.68 1.67 13.41 4.49 5.41 4.06 8.91 10.54 8.91 17.83" fill="#faba23"/><path d="m838.912 1271.55h-143.535c-10.275 0-18.606-8.33-18.606-18.61 0-10.27 8.331-18.6 18.606-18.6h143.535c10.276 0 18.607 8.33 18.607 18.6 0 10.28-8.331 18.61-18.607 18.61" fill="#95a6db"/><path d="m967.07 1271.55h-71.928c-10.276 0-18.606-8.33-18.606-18.61 0-10.27 8.33-18.6 18.606-18.6h71.928c10.27 0 18.6 8.33 18.6 18.6 0 10.28-8.33 18.61-18.6 18.61" fill="#4ead60"/><path d="m653.689 1212.24-112.21 82.19c-6.03-3.99-10.01-10.84-10.01-18.62v-45.74c0-12.33 9.99-22.32 22.31-22.32h86.5c5.03 0 9.68 1.67 13.41 4.49" fill="#fad332"/><path d="m633.577 1272.41c0 8.29-6.719 15.01-15.008 15.01-8.29 0-15.008-6.72-15.008-15.01s6.718-15.01 15.008-15.01c8.289 0 15.008 6.72 15.008 15.01" fill="#e62552"/><path d="m651.399 1272.41c0 8.29-6.719 15.01-15.008 15.01-8.288 0-15.009-6.72-15.009-15.01s6.721-15.01 15.009-15.01c8.289 0 15.008 6.72 15.008 15.01" fill="#95a6db"/><path d="m2241 1067.58c8.72-27.31 6.58-53.81-12.58-71.65-19.43-18.08-50.57-12.41-50.57-12.41s-21.79-14.2-49.1 4.4-16.01 43.46-29.01 58.68c-7.7 9.02-34.82 4.74-35.99 39.86-.33 10.13 9.71 19.41 19.39 22.42 17 5.29 35.84 1.84 40.09 10.84 14.63 30.92 70.83 31.87 82.83 13.47 3.72-5.71 46.81 17.42 52.44-26.19 2.85-22.1-25.3-15.01-17.5-39.42" fill="#020205"/><path d="m2129.7 1056.85c-3.54 33.62 15 63.13 41.41 65.91s50.68-22.23 54.22-55.85c3.54-33.63-15-63.14-41.41-65.92s-50.68 22.23-54.22 55.86" fill="#f37a50"/><path d="m2211.04 1071.02c.31 2.53 2.62 4.33 5.15 4.02s4.33-2.62 4.02-5.15-2.61-4.33-5.15-4.02c-2.53.31-4.33 2.62-4.02 5.15" fill="#000"/><path d="m2173.86 1067.36c.34 2.74 2.83 4.69 5.57 4.35 2.74-.33 4.69-2.83 4.36-5.57-.34-2.74-2.83-4.69-5.58-4.35-2.74.34-4.68 2.83-4.35 5.57" fill="#000"/><path d="m2170.03 1061.62c.38-.05.75-.22 1.03-.51 4.17-4.27 10.9-3 10.97-2.99.94.19 1.85-.42 2.04-1.36s-.42-1.86-1.36-2.05c-.35-.07-8.63-1.67-14.13 3.97-.68.68-.66 1.78.02 2.45.4.39.93.55 1.43.49" fill="#020205"/><path d="m2222.77 1068.06c.19-.02.37-.07.55-.16.86-.42 1.22-1.46.8-2.32-3.25-6.71-10.14-6.84-10.43-6.84-.96-.01-1.74.76-1.75028 1.72-.00972.96.76028 1.74 1.72028 1.75.22.01 5.05.17 7.33 4.89.34.68 1.06 1.05 1.78.96" fill="#020205"/><path d="m2204.9 1079.49c1.52 3.31 2.72 6.58 4.49 8.82.6.76.48 1.87-.25 2.5-2.99 2.62-9.32 3.41-13.12 3.64-.55.04-.72-.73-.21-.94 4.36-1.74 6.55-3.39 7.57-4.35.51-.49.74-1.18.65-1.87-.2-1.59-.59-4.82-.7-7.42-.04-.9 1.19-1.19 1.57-.38" fill="#de623c"/><path d="m2169.24 1094.7c-.36-1.17.84-2.2 1.94-1.66 2.78 1.37 7.42 3.55 12.01 5.17s9.56 2.85 12.6 3.53c1.19.27 1.47 1.82.46 2.51-3.12 2.09-9 4.87-16.04 2.39-7.03-2.49-9.87-8.35-10.97-11.94" fill="#fff"/><path d="m2130.07 1053.89c30.43 6.38 81.56-8.85 90.27-22.86.83-20.24-25.87-40.01-45.77-37.53s-48.69 33.07-44.5 60.39" fill="#020205"/><path d="m2219.66 1144.78c31.32 7.82 84.86 81.02 89.88 135.9-17.19 3.55-36.83-10.15-36.83-10.15l-42.55-61.21z" fill="#de623c"/><path d="m2249.95 1772.68 16.78-66.08-41.63-5.73c-1.43 31.25-3.77 62.02-3.56 70.35z" fill="#f37a50"/><path d="m2150.62 1700.49h-43.46c1.42 10.42 7.13 66.81 7.13 66.81 3.67 8.34 36.06 6.44 36.06 1.75-2.45-10.16.07-67.26.27-68.56" fill="#f37a50"/><path d="m2221.69 1726.32 42.86 6.33 29.72-177.74c-6.12-67.46-65.5-210.96-65.5-210.96l-66.93 23.44-1.63 63.29 80.6 136.47c-10.5 26.39-17.69 111.72-19.12 159.17" fill="#c4204a"/><path d="m2188.56 1348.71c-.61-4.17-.82-5.47-4.29-7.55l-64.27-18.24-15.31 15.11c-14.49 52.61-5.51 125.79 5.92 183.87-16.73 50.26-10.19 153.88-3.45 202.58h45.71c2.65-32.55 1.82-92.94 2.02-122.11 5.92-23.44 11.63-48.44 16.73-74.74 6.53-33.6 14.69-66.15 16.94-96.63 2.04-28.9 2.65-59.9 0-82.29" fill="#e62552"/><path d="m2107.48 1136.77c-15.11 9.91-78.8 92.77-43.7 161.02 1.62.9 29.73-46.73 29.73-46.73l33.18-65.69z" fill="#f37a50"/><path d="m2139.46 1093.66 39.9 22.66s3.54 16.16 5.31 21.4c3.65 10.82-10.33 15.54-22.14 8.81s-19.46-15.74-19.46-15.74z" fill="#f37a50"/><path d="m2238.71 1354.45s-16.47 19.5-19.25 20.96l-14.75-16.1-.1.27-7.59 19.98c-3.42 0-106.25-23.04-106.25-23.04.21-9.27 8.92-39.29 23.03-71.26-3.42-27.08-.14-55.22-1.21-70.83 8.31-41.86 2.38-57.94-5.11-77.66l26.09-7.71 46.96 16.56 3.49-11.32s29.45 7.06 35.64 10.48l11.12 46.43-2.41 98.64s3.7 39.71 10.34 64.6" fill="#3f964f"/><path d="m2142.64 1123.84-18.4 7.81c1.94 22.1 51.38 35.3 51.38 35.3l4.91-21.32z" fill="#0e6a41"/><path d="m2180.53 1145.63 14.56 16.17s12.59-13.02 8.03-21.06c-4.56-8.05-21.24-13.48-21.24-13.48z" fill="#0e6a41"/><path d="m2239.82 1771.61c4.36-11.43 13.66-12.7 13.66-12.7 18.09 24.13 62.51 9.32 61.04 41.96-67.55-.42-95.63 0-95.63 0 .09-7.5 1.43-25.29 2.99-32.25l3.52.62z" fill="#2c2858"/><path d="m2310.61 1809.58h-87.77c-2.18 0-3.95-1.77-3.95-3.94v-5.67h95.67v5.67c0 2.17-1.77 3.94-3.95 3.94" fill="#2c2858"/><path d="m2204.61 1359.58-3.5 9.21c-3.17-21.19-15-109.9-8.32-134.39 6.25-23.01-1.57-47.26-9.15-70.71-1.85-5.74-3.77-11.66-5.41-17.41l2.3-.66 2.3-.65c1.62 5.66 3.52 11.55 5.36 17.25 7.79 24.12 15.83 49.06 9.2 73.44-5.75 21.14 3.07 93.96 7.22 123.92" fill="#0e6a41"/><path d="m2158.09 1801.18s-5.42-20.23-5.9-22.83c-.55-2.95-2.14-9.94-2.46-13.52-.08-.88-9.4-6.58-16.51-6.57003-9.63.02003-18.4 5.60003-18.58 6.65003-1.14 6.75-1.17 14.69-3.01 21.27-1.37 4.89-5.09 16.28-5.09 16.28z" fill="#2c2858"/><path d="m2158.09 1799.61c-1.27 4.02-16.86-.62-28.24-.61006-9.55 0-21.91 3.70006-23.31 2.26006-2.39 4.22-.43 12.96-.43 12.96s9.96.52 21.9 0c11.94-.51 25.74.25 30.94-1.29 3.28-5.49-.86-13.32-.86-13.32" fill="#2c2858"/><path d="m2178.05 1229.63s-82.3 82.5-114.27 68.16c-10.54-14.25 11.84-42.85 32.81-52.43 20.88-9.54 55.93-24.58 55.93-24.58z" fill="#f37a50"/><path d="m2193.63 1201.61 34.2-26.39c.74-.57 1.69-.8 2.61-.64l23.29 4.22c.67.11 2.03 4.18 1.49 4.58l-23.25 13.98c-.11.08-.24.13-.38.15l-36.56 6.27c-.77.09-2.02-1.7-1.4-2.17" fill="#f9cd2d"/><path d="m2195.39 1204.13 32.52-24.82c.75-.57 1.69-.8 2.62-.64l24.06 4.06c.66.11.87.97.34 1.37l-22.88 17.35c-.11.08-.24.13-.38.15l-35.73 3.91c-.77.09-1.17-.9-.55-1.38" fill="#f9f93a"/><path d="m2151.62 1221.22 19.22-9.62s12.18-13.26 15.99-17.22c4.87-1.42 14.34-5.5 16.27-5.36s5.19 1.28 5.19 1.28l-11.12 8.7s4.53 2.09 10.89-.45 18.21-10.34 22.78-7.54c1.45 1.87 1.45 1.87 1.45 1.87s4.01-3.11 6.42-.96c7.46 6.65-40.63 35.31-40.63 35.31l-20.03 2.4z" fill="#f37a50"/><path d="m2231.45 1184.64c-1.35.93-3.03.83-3.75-.22-.71-1.05-.2-2.65 1.16-3.57 1.35-.93 3.03-.83 3.75.22.71 1.04.2 2.64-1.16 3.57" fill="#f9cd2d"/><path d="m2309.54 1280.68s-42.66 48.78-72.36 55.67c-1.76-9.77-3.39-17.26-3.39-17.26l40.48-53.29z" fill="#de623c"/><path d="m2231.79 1339.03c.14-.42.36-.79.61-1.13l-.21-.06c-4.22-1.4-6.82-4.99-5.81-8.01.16-.5.42-.94.74-1.34-2.23-1.73-3.36-4.17-2.64-6.33.29-.86.84-1.57 1.56-2.13-2.34-1.59-3.54-4.24-2.74-6.65 1.01-3.02 4.74-4.51 8.34-3.31 3.59 1.19 5.7 4.61 4.69 7.63-.25.77-.68 1.44-1.24 1.98 3.51 1.63 5.56 4.81 4.65 7.55-.16.49-.42.94-.75 1.34 2.24 1.73 3.36 4.17 2.64 6.33-.26.79-.75 1.47-1.41 2.01 2.15 1.31 3.28 3.65 2.57 5.77-.85 2.56-4 3.81-7.04 2.8s-4.81-3.9-3.96-6.45" fill="#de623c"/><path d="m2139.67 1058.9c4.95 7.73 3.84 17.28-2.49 21.33-6.32 4.05-15.47 1.07-20.42-6.66s-3.83-17.28 2.49-21.33c6.33-4.05 15.47-1.07 20.42 6.66" fill="#f37a50"/><path d="m2129.38 1075.64c.29-.03.59-.14.86-.32 3.86-2.56 5.49-6.39 4.37-10.25-1.15-3.95-4.84-6.88-8.78-6.96-1.11-.03-2.03.85-2.05 1.96s.86 2.03 1.97 2.05c2.15.05 4.35 1.83 5 4.07.63 2.15-.34 4.2-2.73 5.79-.93.61-1.18 1.86-.56 2.78.43.66 1.18.97 1.92.88" fill="#de623c"/><path d="m976.85 1531.21h-436.56c-19.396 0-35.121-15.72-35.121-35.12v-92.33c0-19.4 15.725-35.12 35.121-35.12h436.56c19.4 0 35.12 15.72 35.12 35.12v92.33c0 19.4-15.72 35.12-35.12 35.12" fill="#e3eaff"/><path d="m662.599 1427.06v45.74c0 12.33-9.99 22.32-22.32 22.32h-86.5c-4.54 0-8.77-1.36-12.3-3.7-6.03-3.99-10.01-10.84-10.01-18.62v-45.74c0-12.33 9.99-22.32 22.31-22.32h86.5c5.03 0 9.68 1.67 13.41 4.49 5.41 4.06 8.91 10.54 8.91 17.83" fill="#d6224c"/><path d="m838.912 1468.53h-143.535c-10.275 0-18.606-8.33-18.606-18.6 0-10.28 8.331-18.61 18.606-18.61h143.535c10.276 0 18.607 8.33 18.607 18.61 0 10.27-8.331 18.6-18.607 18.6" fill="#95a6db"/><path d="m967.07 1468.53h-71.928c-10.276 0-18.606-8.33-18.606-18.6 0-10.28 8.33-18.61 18.606-18.61h71.928c10.27 0 18.6 8.33 18.6 18.61 0 10.27-8.33 18.6-18.6 18.6" fill="#4ead60"/><path d="m653.689 1409.23-112.21 82.19c-6.03-3.99-10.01-10.84-10.01-18.62v-45.74c0-12.33 9.99-22.32 22.31-22.32h86.5c5.03 0 9.68 1.67 13.41 4.49" fill="#e62552"/><path d="m633.577 1469.4c0 8.28-6.719 15-15.008 15-8.29 0-15.008-6.72-15.008-15 0-8.29 6.718-15.01 15.008-15.01 8.289 0 15.008 6.72 15.008 15.01" fill="#fac832"/><path d="m651.399 1469.4c0 8.28-6.719 15-15.008 15-8.288 0-15.009-6.72-15.009-15 0-8.29 6.721-15.01 15.009-15.01 8.289 0 15.008 6.72 15.008 15.01" fill="#95a6db"/><path d="m976.85 1728.2h-436.56c-19.396 0-35.121-15.73-35.121-35.12v-92.34c0-19.4 15.725-35.12 35.121-35.12h436.56c19.4 0 35.12 15.72 35.12 35.12v92.34c0 19.39-15.72 35.12-35.12 35.12" fill="#e3eaff"/><path d="m662.599 1624.04v45.74c0 12.33-9.99 22.32-22.32 22.32h-86.5c-4.54 0-8.77-1.36-12.3-3.7-6.03-3.99-10.01-10.84-10.01-18.62v-45.74c0-12.33 9.99-22.32 22.31-22.32h86.5c5.03 0 9.68 1.67 13.41 4.49 5.41 4.06 8.91 10.54 8.91 17.83" fill="#faba23"/><path d="m838.912 1665.52h-143.535c-10.275 0-18.606-8.33-18.606-18.61s8.331-18.61 18.606-18.61h143.535c10.276 0 18.607 8.33 18.607 18.61s-8.331 18.61-18.607 18.61" fill="#95a6db"/><path d="m967.07 1665.52h-71.928c-10.276 0-18.606-8.33-18.606-18.61s8.33-18.61 18.606-18.61h71.928c10.27 0 18.6 8.33 18.6 18.61s-8.33 18.61-18.6 18.61" fill="#4ead60"/><path d="m653.689 1606.21-112.21 82.19c-6.03-3.99-10.01-10.84-10.01-18.62v-45.74c0-12.33 9.99-22.32 22.31-22.32h86.5c5.03 0 9.68 1.67 13.41 4.49" fill="#fad332"/><path d="m633.577 1666.38c0 8.29-6.719 15.01-15.008 15.01-8.29 0-15.008-6.72-15.008-15.01s6.718-15.01 15.008-15.01c8.289 0 15.008 6.72 15.008 15.01" fill="#e62552"/><path d="m651.399 1666.38c0 8.29-6.719 15.01-15.008 15.01-8.288 0-15.009-6.72-15.009-15.01s6.721-15.01 15.009-15.01c8.289 0 15.008 6.72 15.008 15.01" fill="#95a6db"/></g></svg>