<svg xmlns="http://www.w3.org/2000/svg" fill="none" viewBox="0 0 1623 469">
  <path fill="#4E529A" fill-rule="evenodd" d="M593 234 456 96v101L319 298h137v73l137-137Z" clip-rule="evenodd"/>
  <path fill="#8C8DFC" fill-rule="evenodd" d="m108 234 138 137V271l137-101H246V96L108 234Z" clip-rule="evenodd"/>
  <path fill="#11142b" fill-opacity=".9" d="M805 315H700v-31l60-67h-59v-30h103v29l-62 69h63v30Zm145-128-52 54 53 74h-43l-33-49-15 15v34h-34V127h34v108l44-48h46Zm150-12-33 10c-1-7-4-13-9-18-6-6-14-8-24-8-8 0-15 2-21 7-5 4-8 10-8 16 0 11 7 18 20 21l26 5c16 3 29 9 38 19s13 22 13 35c0 15-6 28-18 40a68 68 0 0 1-48 17c-12 0-22-2-32-6a62 62 0 0 1-36-32c-3-6-5-13-5-20l33-9c1 10 5 18 11 25 7 6 17 10 29 10 9 0 17-2 22-6 5-5 8-10 8-17 0-5-2-10-6-14s-9-6-16-8l-26-5c-15-3-27-9-35-18-9-9-13-21-13-34 0-17 6-30 18-41 13-11 28-17 46-17 10 0 20 2 28 4 8 3 15 7 20 12a61 61 0 0 1 18 32Z"/>
  <path fill="#11142b" fill-opacity=".9" d="M1160 365h-36l30-66-54-112h38l34 75 32-75h37l-81 178Zm128-124v74h-34V187h33v16c4-6 9-11 16-14 7-4 14-5 21-5 15 0 27 5 34 14 8 9 12 22 12 36v81h-34v-75c0-7-2-13-6-18s-10-7-18-7c-7 0-13 2-17 7-5 5-7 12-7 19Zm167-26c-9 0-17 3-23 10-6 6-10 15-10 26s4 20 10 26c6 7 14 10 23 10 8 0 15-2 20-6 4-5 8-10 9-16l31 11c-3 11-10 21-20 30-11 8-24 13-40 13a66 66 0 0 1-67-68c0-20 6-36 19-48 13-13 28-20 47-20 16 0 30 5 40 13s17 18 20 30l-31 11c-4-15-13-22-28-22Z"/>
</svg>
